# xmcd CD database file
#
# Track frame offsets:
#	150
#	21064
#	37301
#	62616
#	84443
#	101650
#	121709
#	140022
#	153675
#	166623
#	192580
#	206462
#	225379
#	244084
#	259433
#	281901
#	302050
#	325026
#
# Disc length: 4609 seconds
#
# Revision: 2
# Processed by: cddbd v1.5.2PL0 Copyright (c) Steve Scherf et al.
# Submitted via: CDex 1.70beta3
#
DISCID=fc11ff12
DTITLE=Earth,Wind&Fire - Fantasy ～　Perfect Best
DYEAR=2009
DGENRE=Soul
TTITLE0=Fantasy
TTITLE1=September
TTITLE2=Let's Groove
TTITLE3=Boogie Wonderland
TTITLE4=Getaway
TTITLE5=After The Love Has Gone
TTITLE6=Saturday Nite
TTITLE7=Brazilian Rhyme (Re-Edited By Danny Krivit)
TTITLE8=Shining Star
TTITLE9=That's The Way Of The World
TTITLE10=Mighty Mighty
TTITLE11=Got To Get You Into My Life
TTITLE12=Can't Hide Love
TTITLE13=Sing A Song
TTITLE14=Reasons
TTITLE15=In The Stone
TTITLE16=Easy Lover (Philip Bailey With Phil Collins)
TTITLE17=I Need You (Mauirice White)
EXTD=YEAR: 2009
EXTT0=
EXTT1=
EXTT2=
EXTT3=
EXTT4=
EXTT5=
EXTT6=
EXTT7=
EXTT8=
EXTT9=
EXTT10=
EXTT11=
EXTT12=
EXTT13=
EXTT14=
EXTT15=
EXTT16=
EXTT17=
PLAYORDER=
